<svg xmlns="http://www.w3.org/2000/svg" xmlns:xlink="http://www.w3.org/1999/xlink" fill="none" version="1.1" width="1024" height="512" viewBox="0 0 1024 512"><defs><linearGradient x1="1" y1="0" x2="0" y2="1" id="master_svg0_31_4126"><stop offset="0%" stop-color="#CEFFB2" stop-opacity="1"/><stop offset="100%" stop-color="#49FFF9" stop-opacity="1"/></linearGradient><clipPath id="master_svg1_31_1428"><rect x="0" y="0" width="1024" height="512" rx="50"/></clipPath><linearGradient x1="1" y1="-0.62677001953125" x2="0" y2="1" id="master_svg2_2_5966"><stop offset="0%" stop-color="#00DDFF" stop-opacity="1"/><stop offset="99.99992847442627%" stop-color="#BFFF00" stop-opacity="1"/></linearGradient><linearGradient x1="1" y1="-0.6584289073944092" x2="0" y2="1" id="master_svg3_2_5430"><stop offset="0%" stop-color="#00DDFF" stop-opacity="1"/><stop offset="100.00005960464478%" stop-color="#BFFF00" stop-opacity="1"/></linearGradient><filter id="master_svg4_31_2084" filterUnits="objectBoundingBox" color-interpolation-filters="sRGB" x="-20" y="-16" width="308" height="307"><feFlood flood-opacity="0" result="BackgroundImageFix"/><feColorMatrix in="SourceAlpha" type="matrix" values="0 0 0 0 0 0 0 0 0 0 0 0 0 0 0 0 0 0 127 0"/><feOffset dy="4" dx="0"/><feGaussianBlur stdDeviation="5"/><feColorMatrix type="matrix" values="0 0 0 0 0 0 0 0 0 0 0 0 0 0 0 0 0 0 0.3019607961177826 0"/><feBlend mode="normal" in2="BackgroundImageFix" result="effect1_dropShadow"/><feBlend mode="normal" in="SourceGraphic" in2="effect1_dropShadow" result="shape"/></filter></defs><g style="mix-blend-mode:passthrough" clip-path="url(#master_svg1_31_1428)"><rect x="0" y="0" width="1024" height="512" rx="50" fill="url(#master_svg0_31_4126)" fill-opacity="1"/><g style="mix-blend-mode:passthrough"><path d="M136.6406,229.5156L127.5312,315L79.4062,315L89.4844,219.7969L108.5625,219.7969L110.6094,199.4375L120.4375,199.4375L118.2812,219.7969L127.8906,219.7969Q133.1562,219.7969,135.1406,222.6875Q137.125,225.5625,136.6406,229.5156ZM47.84375,299.781L56,298.828Q56.125,302.188,56.5938,303.453Q57.0781,304.719,57.6875,304.719Q58.4062,304.828,59,303.578Q59.6094,302.312,59.9688,298.828L63.0781,270.7656Q59.3594,272.4375,55.6406,273.8594L53.25,263.8906Q59,261.7188,64.2812,259.2031L67.2812,231.5625L58.1562,231.5625L59.25,221L68.4844,221L70.7656,199.4375L80.3594,199.4375L78.0781,221L85.1562,221L84.0781,231.5625L77,231.5625L74.7188,253.5781Q77.3594,252.0156,79.8906,250.3281L83.3594,259.6719Q78.4375,262.7812,73.4062,265.5312L69.7969,300.031Q68.9688,308.781,65.4219,312Q61.8906,315.234,58.0469,315.125Q53.35938,314.875,50.84375,311.453Q48.32812,308.047,47.84375,299.781ZM95.7188,261.75L104.125,261.75L107.4844,229.875L99.0781,229.875L95.7188,261.75ZM113.8438,261.75L122.6094,261.75L125.9688,229.875L117.2031,229.875L113.8438,261.75ZM91.1562,304.797L99.5625,304.797L103.1562,271L94.7656,271L91.1562,304.797ZM109.2812,304.797L117.9219,304.797L121.5312,271L112.8906,271L109.2812,304.797ZM416.125,259.8438L411.438,251.2031Q417.688,249.0469,423.734,245.9844Q429.797,242.9062,435.203,239.0781Q431.125,232.9531,426.797,227.4375Q423.922,230.3125,420.797,232.9531L414.312,225.6406Q421.156,220.125,426.375,213.2969Q431.594,206.4531,434.844,198.89062L443.594,202.6094Q442.047,206.2031,440.125,209.4531Q444.203,209.4531,448.156,209.5156Q452.125,209.5625,456.078,209.5625Q460.641,209.5625,462.859,212.5156Q465.078,215.4531,463.641,219.7656Q460.406,228.2812,453.625,236.0312Q446.844,243.7656,437.297,249.8906Q427.766,256,416.125,259.8438ZM398.594,262L400.516,244Q394.516,249.2656,387.562,254.3125L382.766,245.4375Q388.047,242.0781,392.844,238.3594Q397.641,234.625,402.078,230.4375L402.922,222.1562L395.844,226.125Q392.234,218.0938,386.953,210.0469L395.234,205.125Q397.406,208.25,399.5,211.7812Q401.594,215.3125,403.281,218.7969L405.312,200.2031L415.641,200.2031L409.047,262L398.594,262ZM432.922,220.2344Q435.562,223.3594,438.016,226.5938Q440.484,229.8281,442.516,233.0781Q446,229.8281,448.812,226.2344Q451.641,222.625,453.562,218.7969L434.234,218.6719Q433.641,219.5156,432.922,220.2344ZM425.719,262.6875Q425.359,265.8125,424.766,268.6875L459.438,268.6875L458.359,278.1562L427.047,278.1562Q430.875,287.2812,438.609,294.297Q446.359,301.312,458.719,305.875L454.875,316.203Q442.766,312.234,433.281,304.266Q423.797,296.281,418.875,284.7656Q412.406,297,401.484,304.203Q390.562,311.406,377.844,314.641L374.594,304.797Q382.156,302.641,388.938,299.406Q395.719,296.156,401.297,291Q406.875,285.8438,410.594,278.1562L380.844,278.1562L381.797,268.6875L414.078,268.6875Q415.047,265.0625,415.641,260.9219L425.719,262.6875ZM556.078,299.172L554.5160000000001,310L514.312,310L527.875,213L539.875,213L527.875,299.172L556.078,299.172ZM600.406,237L612.047,237L601.594,310L590.688,310L591.281,302.75Q588.281,307.172,584.609,309.078Q580.953,311,577.484,311Q573.156,311,569.734,308.906Q566.312,306.828,564.75,302.109Q563.203,297.391,564.281,289.5156L571.719,237L583.484,237L576.156,287.5312Q574.359,300.172,582.281,300.172Q586.125,300.172,589,296.594Q591.875,293.016,593.203,287.4219L600.406,237ZM657.234,290.656Q654.844,300.047,648.953,305.531Q643.078,311,634.312,311Q622.688,311,618.359,301.797Q614.047,292.594,616.562,273.2031Q619.078,253.5781,625.734,244.375Q632.406,235.1719,643.797,235.1719Q652.312,235.1719,656.812,240.4844Q661.312,245.7812,662.047,254.3125L650.875,256.1094Q650.516,252.1406,648.781,249.0781Q647.047,246,642.844,246Q637.562,246,634.078,252.625Q630.594,259.2344,628.562,273.2031Q626.641,287.0469,628.203,293.609Q629.766,300.172,635.641,300.172Q639.125,300.172,642.125,297.344Q645.125,294.516,646.688,289.0938L657.234,290.656ZM674.234,310L662.594,310L676.875,209L688.516,209L679.516,272.6562L702.562,237L715.047,237L694.281,267.5156L704,310L692,310L685.281,278.1719L677,290.25L674.234,310ZM752.922,310L734.203,310L747.875,213L765.047,213Q777.406,213,783.812,219.0625Q790.234,225.125,791.969,236.2969Q793.719,247.4531,791.688,262.5781Q789.875,277.1094,785.312,287.7344Q780.766,298.359,772.844,304.188Q764.922,310,752.922,310ZM763.719,223.8281L758.688,223.8281L748.125,299.172L754.359,299.172Q764.688,299.172,770.5,289.8125Q776.312,280.4375,778.719,262.8906Q781.594,242.7031,777.875,233.2656Q774.156,223.8281,763.719,223.8281ZM807,310L795.594,310L805.922,236L817.312,236L816,245.2969Q819.484,240.0469,824.281,237.7812Q829.078,235.5,834.359,235.5L832.797,247.3438Q826.203,246.5,820.797,250.6719Q815.406,254.8281,813.484,263.875L807,310ZM873.203,310L862.156,310L862.766,303.25Q860.125,306.844,856.812,308.922Q853.516,311,849.922,311Q844.156,311,840.016,307.141Q835.875,303.281,834.312,294.547Q832.766,285.7969,834.797,271.2031Q837.312,252.8906,843.969,244.0312Q850.641,235.1719,859.406,235.1719Q867.438,235.1719,871.047,242.7812L871.875,237L883.516,237L873.203,310ZM846.688,272.5312Q845.719,280.2656,845.656,286.5469Q845.594,292.812,847.266,296.5Q848.953,300.172,853.047,300.172Q855.922,300.172,858.25,298.062Q860.594,295.938,862.266,292.562Q863.953,289.1875,864.922,285.4531L868.766,258.5469Q868.875,252.9844,866.656,249.5Q864.438,246,860.484,246Q856.766,246,854,249.625Q851.234,253.2344,849.438,259.2656Q847.641,265.2969,846.688,272.5312ZM896.281,310L891.125,237L903,237L904.688,280.3281Q904.797,284.3906,904.969,288.5156Q905.156,292.641,905.406,296.719Q906.594,292.641,907.859,288.5781Q909.125,284.5156,910.438,280.3281L923.875,237L935.516,237L937.562,280.3281Q937.797,284.3906,937.969,288.4688Q938.156,292.531,938.281,296.594Q939.594,292.531,940.859,288.4688Q942.125,284.3906,943.312,280.3281L956.766,237L968.766,237L943.078,310L929.156,310L926.516,270.5156Q926.406,268.5938,926.344,266.1406Q926.281,263.6875,926.281,260.9375Q925.797,262.9688,925.312,264.8281Q924.844,266.6875,924.359,268L910.203,310L896.281,310Z" fill="#3D3D3D" fill-opacity="1"/></g><g style="mix-blend-mode:passthrough"><path d="M210.6016,494.2422Q209.6406,495.6797,208.0625,496.5Q206.4922,497.3125,204.55469,497.3125Q202.10156,497.3125,200.25,496.125Q198.40625,494.9375,197.38281,492.7812Q196.36719,490.6172,196.36719,487.7812Q196.36719,485,197.38281,482.8906Q198.40625,480.77344,200.25,479.60938Q202.10156,478.44531,204.55469,478.44531Q206.4453,478.44531,208.0547,479.26562Q209.6641,480.07812,210.6016,481.52344L209.1094,482.5781Q208.3672,481.49219,207.0938,480.85156Q205.8203,480.20312,204.53125,480.20312Q202.67969,480.20312,201.26562,481.14844Q199.85156,482.0938,199.07031,483.8125Q198.28906,485.5312,198.28906,487.7812Q198.28906,490.0859,199.07031,491.8516Q199.85156,493.6172,201.26562,494.5938Q202.67969,495.5625,204.53125,495.5625Q205.8516,495.5625,207.0703,494.9141Q208.2969,494.2656,209.1094,493.1328L210.6016,494.2422ZM218.3906,497.3125Q216.6562,497.3125,215.3516,496.5Q214.0469,495.6797,213.3359,494.1719Q212.625,492.6562,212.625,490.6406Q212.625,488.625,213.3359,487.1172Q214.0469,485.6016,215.3516,484.7891Q216.6562,483.9688,218.3906,483.9688Q220.1172,483.9688,221.4219,484.7891Q222.7344,485.6016,223.4375,487.1172Q224.1484,488.625,224.1484,490.6406Q224.1484,492.6562,223.4375,494.1719Q222.7344,495.6797,221.4219,496.5Q220.1172,497.3125,218.3906,497.3125ZM218.3906,495.6328Q220.1641,495.6328,221.2422,494.2812Q222.3203,492.9219,222.3203,490.6406Q222.3203,488.3594,221.2422,487.0078Q220.1641,485.6484,218.3906,485.6484Q216.6094,485.6484,215.5312,487.0078Q214.4531,488.3594,214.4531,490.6406Q214.4531,492.9219,215.5312,494.2812Q216.6094,495.6328,218.3906,495.6328ZM227.25,502.7109L227.25,484.3047L229.0312,484.3047L229.0312,486.3203L229.1484,486.3203Q229.8438,485.2188,230.9219,484.5938Q232.0078,483.9688,233.2734,483.9688Q234.8125,483.9688,236.0469,484.7969Q237.2812,485.625,237.9766,487.1016Q238.6797,488.5781,238.6797,490.4453Q238.6797,492.4141,237.9766,493.9766Q237.2812,495.5391,236.0469,496.4141Q234.8125,497.2891,233.2734,497.2891Q231.9062,497.2891,230.8516,496.6875Q229.7969,496.0859,229.1484,494.9609L229.0312,494.9609L229.0312,502.7109L227.25,502.7109ZM228.9531,490.6406Q228.9531,492.0781,229.4453,493.1953Q229.9375,494.3125,230.8125,494.9375Q231.6953,495.5625,232.8203,495.5625Q233.9688,495.5625,234.8906,494.9375Q235.8203,494.3125,236.3438,493.1953Q236.875,492.0781,236.875,490.6406Q236.875,489.2266,236.3594,488.1094Q235.8438,486.9922,234.9297,486.3594Q234.0234,485.7188,232.8672,485.7188Q231.7422,485.7188,230.8516,486.3594Q229.9609,486.9922,229.4531,488.1094Q228.9531,489.2266,228.9531,490.6406ZM245.0859,496.9766L240.1406,484.3047L242.1562,484.3047L246.0938,494.7422L246.2422,494.7422L250.0312,484.3047L252.0469,484.3047L244.9219,502.7344L242.9297,502.7344L245.0859,496.9766ZM253.75,496.9766L253.75,484.3047L255.5312,484.3047L255.5312,486.8516L255.6484,486.8516Q256.4141,485.5312,257.6641,484.75Q258.9141,483.9688,260.4688,483.9688L260.6641,483.9688L260.6641,485.8906L260.4219,485.8906Q258.9609,485.8906,257.8438,486.4297Q256.7266,486.9688,256.125,487.8438Q255.5312,488.7188,255.5312,489.6797L255.5312,496.9766L253.75,496.9766ZM265.1484,479.69531Q265.1484,480.27344,264.7969,480.60938Q264.4531,480.94531,263.8828,480.94531Q263.3047,480.94531,262.9766,480.60938Q262.6562,480.27344,262.6562,479.69531Q262.6562,479.11719,262.9766,478.78125Q263.3047,478.44531,263.8828,478.44531Q264.4531,478.44531,264.7969,478.78125Q265.1484,479.11719,265.1484,479.69531ZM264.7891,484.3047L264.7891,497L263.0156,497L263.0156,484.3047L264.7891,484.3047ZM273.8672,503.0234Q272.1562,503.0234,270.7656,502.3281Q269.375,501.6328,268.5625,500.3828L270.0469,499.375Q270.6484,500.3125,271.7031,500.8359Q272.7578,501.3672,273.8672,501.3672Q275.7344,501.3672,276.7656,500.2266Q277.7969,499.0859,277.7969,497.0234L277.7969,494.9609L277.6562,494.9609Q277.0312,496.0859,275.9766,496.7031Q274.9219,497.3125,273.6016,497.3125Q272.0625,497.3125,270.8125,496.4375Q269.5703,495.5625,268.8438,494.0156Q268.125,492.4609,268.125,490.5234Q268.125,488.625,268.8359,487.125Q269.5469,485.625,270.8047,484.7969Q272.0625,483.9688,273.6016,483.9688Q274.8203,483.9688,275.875,484.5938Q276.9375,485.2188,277.6562,486.3203L277.7969,486.3203L277.7969,484.3281L279.5781,484.3281L279.5781,496.7344Q279.5781,499.7578,278.1016,501.3906Q276.625,503.0234,273.8672,503.0234ZM274.0312,495.5625Q275.1562,495.5625,276.0234,494.9375Q276.8906,494.3125,277.3672,493.1953Q277.8516,492.0781,277.8516,490.6406Q277.8516,489.2266,277.3594,488.1016Q276.8672,486.9688,275.9766,486.3438Q275.0859,485.7188,273.9609,485.7188Q272.8047,485.7188,271.8906,486.3438Q270.9844,486.9688,270.4688,488.0859Q269.9531,489.2031,269.9531,490.6406Q269.9531,492.0781,270.4766,493.1953Q271.0078,494.3125,271.9297,494.9375Q272.8594,495.5625,274.0312,495.5625ZM283.25,496.9766L283.25,478.78125L285.0312,478.78125L285.0312,486.25L285.1484,486.25Q285.7266,485.2188,286.8516,484.5938Q287.9766,483.9688,289.2031,483.9688Q291.3125,483.9688,292.5156,485.2891Q293.7188,486.6094,293.7188,488.9844L293.7188,496.9766L291.9375,496.9766L291.9375,489.2734Q291.9375,487.6172,291.0391,486.6094Q290.1406,485.6016,288.7734,485.6016Q287.1172,485.6016,286.0703,486.6953Q285.0312,487.7812,285.0312,489.4609L285.0312,496.9766L283.25,496.9766ZM303.445,485.9844L299.773,485.9844L299.773,493.4453Q299.773,494.5547,300.32,495.1641Q300.875,495.7734,301.859,495.7734Q302.367,495.7734,303.156,495.5156L303.156,497.1719Q302.508,497.4297,301.5,497.4297Q299.797,497.4297,298.883,496.4375Q297.969,495.4375,297.969,493.5938L297.969,485.9844L295.977,485.9844L295.977,484.3047L297.969,484.3047L297.969,480.34375L299.773,480.34375L299.773,484.3047L303.445,484.3047L303.445,485.9844ZM323.062,497.3125Q320.32,497.3125,318.164,496.1172Q316.008,494.9141,314.805,492.7656Q313.602,490.6172,313.602,487.8828Q313.602,485.1406,314.805,483Q316.008,480.85156,318.164,479.64844Q320.32,478.44531,323.062,478.44531Q325.797,478.44531,327.93,479.64844Q330.07,480.85156,331.26599999999996,483Q332.469,485.1406,332.469,487.8828Q332.469,490.6172,331.26599999999996,492.7656Q330.07,494.9141,327.93,496.1172Q325.797,497.3125,323.062,497.3125ZM323.062,496.2812Q325.461,496.2812,327.352,495.2109Q329.25,494.1406,330.32,492.2266Q331.39099999999996,490.3047,331.39099999999996,487.8828Q331.39099999999996,485.4531,330.32,483.5391Q329.25,481.61719,327.352,480.54688Q325.461,479.47656,323.062,479.47656Q320.633,479.47656,318.734,480.54688Q316.844,481.61719,315.773,483.5391Q314.711,485.4531,314.711,487.8828Q314.711,490.3047,315.773,492.2266Q316.844,494.1406,318.734,495.2109Q320.633,496.2812,323.062,496.2812ZM323.273,494.1953Q321.641,494.1953,320.391,493.4062Q319.148,492.6094,318.461,491.1562Q317.781,489.7031,317.781,487.8047Q317.781,485.9375,318.461,484.5234Q319.148,483.1016,320.391,482.3359Q321.641,481.57031,323.273,481.57031Q324.64099999999996,481.57031,325.789,482.2109Q326.945,482.8438,327.547,483.9219L326.10900000000004,484.9297Q325.703,484.2344,324.906,483.7656Q324.11699999999996,483.2969,323.273,483.2969Q321.617,483.2969,320.617,484.5312Q319.625,485.7656,319.625,487.8047Q319.625,489.9219,320.617,491.1953Q321.617,492.4609,323.273,492.4609Q324.11699999999996,492.4609,324.898,492.0078Q325.68,491.5547,326.13300000000004,490.7812L327.547,491.8438Q326.922,492.9453,325.781,493.5703Q324.64099999999996,494.1953,323.273,494.1953ZM337.195,495.25L345.695,495.25L345.695,496.9766L334.703,496.9766L334.703,495.4141L340.26599999999996,489.0547Q341.969,487.0625,342.703,485.7656Q343.438,484.4688,343.438,483.3438Q343.438,481.90625,342.50800000000004,481.03125Q341.586,480.14844,340.078,480.14844Q338.828,480.14844,337.828,480.88281Q336.836,481.61719,336.211,483.0312L334.625,482.2422Q335.352,480.41406,336.76599999999996,479.42969Q338.18,478.44531,340.125,478.44531Q341.656,478.44531,342.844,479.03906Q344.039,479.625,344.695,480.71875Q345.35900000000004,481.80469,345.35900000000004,483.25Q345.35900000000004,484.6406,344.555,486.2266Q343.75,487.8047,341.922,489.8984L337.195,495.25ZM354.51599999999996,497.3125Q351.63300000000004,497.3125,350.055,494.8672Q348.48400000000004,492.4141,348.48400000000004,487.8828Q348.48400000000004,483.3438,350.055,480.89844Q351.63300000000004,478.44531,354.51599999999996,478.44531Q357.39099999999996,478.44531,358.977,480.89844Q360.562,483.3438,360.562,487.8828Q360.562,492.4141,358.977,494.8672Q357.39099999999996,497.3125,354.51599999999996,497.3125ZM354.51599999999996,495.5859Q356.477,495.5859,357.555,493.5859Q358.64099999999996,491.5781,358.64099999999996,487.8828Q358.64099999999996,484.1875,357.547,482.1719Q356.453,480.14844,354.51599999999996,480.14844Q352.57,480.14844,351.48400000000004,482.1562Q350.406,484.1562,350.406,487.8828Q350.406,491.5781,351.48400000000004,493.5859Q352.57,495.5859,354.51599999999996,495.5859ZM365.695,495.25L374.195,495.25L374.195,496.9766L363.203,496.9766L363.203,495.4141L368.76599999999996,489.0547Q370.469,487.0625,371.203,485.7656Q371.938,484.4688,371.938,483.3438Q371.938,481.90625,371.00800000000004,481.03125Q370.086,480.14844,368.578,480.14844Q367.328,480.14844,366.328,480.88281Q365.336,481.61719,364.711,483.0312L363.125,482.2422Q363.852,480.41406,365.26599999999996,479.42969Q366.68,478.44531,368.625,478.44531Q370.156,478.44531,371.344,479.03906Q372.539,479.625,373.195,480.71875Q373.85900000000004,481.80469,373.85900000000004,483.25Q373.85900000000004,484.6406,373.055,486.2266Q372.25,487.8047,370.422,489.8984L365.695,495.25ZM382.031,486.3438Q382.48400000000004,486.25,383.062,486.25Q384.406,486.25,385.61699999999996,486.875Q386.828,487.4922,387.586,488.7188Q388.344,489.9453,388.344,491.6719Q388.344,493.375,387.61699999999996,494.6484Q386.898,495.9219,385.578,496.6172Q384.25800000000004,497.3125,382.555,497.3125Q380.60900000000004,497.3125,379.062,496.2734Q377.51599999999996,495.2266,376.797,493.375L378.5,492.75Q379.68,495.5859,382.625,495.5859Q384.328,495.5859,385.375,494.5156Q386.422,493.4453,386.422,491.6719Q386.422,489.8984,385.352,488.8281Q384.281,487.7578,382.50800000000004,487.7578Q381.38300000000004,487.7578,380.375,488.3359L379.344,486.9219L384.906,480.48438L377.25,480.48438L377.25,478.78125L387.35900000000004,478.78125L387.35900000000004,480.34375L381.977,486.25L382.031,486.3438ZM405.273,478.78125Q408.539,478.78125,410.312,480.22656Q412.086,481.66406,412.086,484.3047Q412.086,486.9688,410.36699999999996,488.3984Q408.656,489.8203,405.438,489.8203L401.76599999999996,489.8203L401.76599999999996,496.9766L399.922,496.9766L399.922,478.78125L405.273,478.78125ZM405.102,488.0938Q407.531,488.0938,408.852,487.1094Q410.172,486.125,410.172,484.3047Q410.172,482.4766,408.852,481.50781Q407.531,480.53906,405.102,480.53906L401.76599999999996,480.53906L401.76599999999996,488.0938L405.102,488.0938ZM425.094,484.3047L425.094,496.9766L423.32,496.9766L423.32,495.0547L423.18,495.0547Q422.602,496.0859,421.48400000000004,496.7031Q420.36699999999996,497.3125,419.11699999999996,497.3125Q417.00800000000004,497.3125,415.82,496.0078Q414.63300000000004,494.6953,414.63300000000004,492.3203L414.63300000000004,484.3047L416.406,484.3047L416.406,492.0312Q416.406,493.7109,417.281,494.6953Q418.156,495.6797,419.578,495.6797Q421.23400000000004,495.6797,422.273,494.6016Q423.32,493.5234,423.32,491.8125L423.32,484.3047L425.094,484.3047ZM428.75,496.9766L428.75,484.3047L430.531,484.3047L430.531,486.8516L430.648,486.8516Q431.414,485.5312,432.664,484.75Q433.914,483.9688,435.469,483.9688L435.664,483.9688L435.664,485.8906L435.422,485.8906Q433.961,485.8906,432.844,486.4297Q431.727,486.9688,431.125,487.8438Q430.531,488.7188,430.531,489.6797L430.531,496.9766L428.75,496.9766ZM441.156,497.3125Q439.289,497.3125,438.203,496.3672Q437.125,495.4141,437.125,493.8281Q437.125,489.75,443.48400000000004,489.75L445.35900000000004,489.75L445.35900000000004,488.6016Q445.35900000000004,487.2109,444.539,486.4062Q443.727,485.6016,442.312,485.6016Q440.703,485.6016,439.07,486.9688L438.01599999999996,485.7422Q439.914,483.9688,442.406,483.9688Q444.61699999999996,483.9688,445.88300000000004,485.1484Q447.156,486.3203,447.156,488.3594L447.156,496.9766L445.35900000000004,496.9766L445.35900000000004,495.0547L445.24199999999996,495.0547Q444.664,496.0859,443.547,496.7031Q442.43,497.3125,441.156,497.3125ZM441.469,495.6797Q442.35900000000004,495.6797,443.25800000000004,495.2891Q444.156,494.8906,444.75800000000004,494.0859Q445.35900000000004,493.2812,445.35900000000004,492.1484L445.35900000000004,491.3828L443.82,491.3828Q441.328,491.3828,440.14099999999996,491.9609Q438.953,492.5391,438.953,493.7109Q438.953,494.625,439.625,495.1562Q440.297,495.6797,441.469,495.6797ZM450.75,496.9766L450.75,484.3047L452.531,484.3047L452.531,486.25L452.648,486.25Q453.227,485.2188,454.352,484.5938Q455.477,483.9688,456.703,483.9688Q458.812,483.9688,460.016,485.2891Q461.219,486.6094,461.219,488.9844L461.219,496.9766L459.438,496.9766L459.438,489.2734Q459.438,487.6172,458.539,486.6094Q457.641,485.6016,456.273,485.6016Q454.617,485.6016,453.57,486.6953Q452.531,487.7812,452.531,489.4609L452.531,496.9766L450.75,496.9766ZM475.266,478.78125L475.266,495.2266L484.438,495.2266L484.438,496.9766L473.422,496.9766L473.422,478.78125L475.266,478.78125ZM490.156,497.3125Q488.289,497.3125,487.203,496.3672Q486.125,495.4141,486.125,493.8281Q486.125,489.75,492.484,489.75L494.359,489.75L494.359,488.6016Q494.359,487.2109,493.539,486.4062Q492.727,485.6016,491.312,485.6016Q489.703,485.6016,488.07,486.9688L487.016,485.7422Q488.914,483.9688,491.406,483.9688Q493.617,483.9688,494.883,485.1484Q496.156,486.3203,496.156,488.3594L496.156,496.9766L494.359,496.9766L494.359,495.0547L494.242,495.0547Q493.664,496.0859,492.547,496.7031Q491.43,497.3125,490.156,497.3125ZM490.469,495.6797Q491.359,495.6797,492.258,495.2891Q493.156,494.8906,493.758,494.0859Q494.359,493.2812,494.359,492.1484L494.359,491.3828L492.82,491.3828Q490.328,491.3828,489.141,491.9609Q487.953,492.5391,487.953,493.7109Q487.953,494.625,488.625,495.1562Q489.297,495.6797,490.469,495.6797ZM502.148,479.69531Q502.148,480.27344,501.797,480.60938Q501.453,480.94531,500.883,480.94531Q500.305,480.94531,499.977,480.60938Q499.656,480.27344,499.656,479.69531Q499.656,479.11719,499.977,478.78125Q500.305,478.44531,500.883,478.44531Q501.453,478.44531,501.797,478.78125Q502.148,479.11719,502.148,479.69531ZM501.789,484.3047L501.789,497L500.016,497L500.016,484.3047L501.789,484.3047ZM505.75,496.9766L505.75,494.6484L508.055,494.6484L508.055,496.9766L505.75,496.9766ZM533.953,496.9766L531.9839999999999,496.9766L529.781,490.7578L523.0160000000001,490.7578L520.8050000000001,496.9766L518.836,496.9766L525.414,478.78125L527.3589999999999,478.78125L533.953,496.9766ZM526.3199999999999,481.49219L523.656,488.9844L529.133,488.9844L526.469,481.49219L526.3199999999999,481.49219ZM536.25,478.78125L538.031,478.78125L538.031,494.4766Q538.031,495.5156,539.039,495.5156L539.711,495.5156L539.711,497.1719L538.648,497.1719Q536.25,497.1719,536.25,494.9609L536.25,478.78125ZM542.25,478.78125L544.031,478.78125L544.031,494.4766Q544.031,495.5156,545.039,495.5156L545.711,495.5156L545.711,497.1719L544.648,497.1719Q542.25,497.1719,542.25,494.9609L542.25,478.78125ZM569.5699999999999,496.9766L567.383,496.9766L562.773,489.1797L562.25,489.1797L558.7660000000001,489.1797L558.7660000000001,496.9766L556.922,496.9766L556.922,478.78125L562.0550000000001,478.78125Q565.3199999999999,478.78125,567.086,480.15625Q568.852,481.52344,568.852,484.0391Q568.852,485.9844,567.781,487.2188Q566.711,488.4531,564.6949999999999,488.9375L569.5699999999999,496.9766ZM561.914,487.3984Q564.336,487.3984,565.633,486.5234Q566.9300000000001,485.6484,566.9300000000001,484.0391Q566.9300000000001,482.3594,565.633,481.45312Q564.336,480.53906,561.914,480.53906L558.7660000000001,480.53906L558.7660000000001,487.3984L561.914,487.3984ZM574.148,479.69531Q574.148,480.27344,573.797,480.60938Q573.453,480.94531,572.883,480.94531Q572.3050000000001,480.94531,571.977,480.60938Q571.656,480.27344,571.656,479.69531Q571.656,479.11719,571.977,478.78125Q572.3050000000001,478.44531,572.883,478.44531Q573.453,478.44531,573.797,478.78125Q574.148,479.11719,574.148,479.69531ZM573.789,484.3047L573.789,497L572.0160000000001,497L572.0160000000001,484.3047L573.789,484.3047ZM582.867,503.0234Q581.156,503.0234,579.7660000000001,502.3281Q578.375,501.6328,577.562,500.3828L579.047,499.375Q579.648,500.3125,580.703,500.8359Q581.758,501.3672,582.867,501.3672Q584.7339999999999,501.3672,585.7660000000001,500.2266Q586.797,499.0859,586.797,497.0234L586.797,494.9609L586.656,494.9609Q586.031,496.0859,584.977,496.7031Q583.922,497.3125,582.602,497.3125Q581.062,497.3125,579.812,496.4375Q578.5699999999999,495.5625,577.844,494.0156Q577.125,492.4609,577.125,490.5234Q577.125,488.625,577.836,487.125Q578.547,485.625,579.8050000000001,484.7969Q581.062,483.9688,582.602,483.9688Q583.8199999999999,483.9688,584.875,484.5938Q585.938,485.2188,586.656,486.3203L586.797,486.3203L586.797,484.3281L588.578,484.3281L588.578,496.7344Q588.578,499.7578,587.102,501.3906Q585.625,503.0234,582.867,503.0234ZM583.031,495.5625Q584.156,495.5625,585.023,494.9375Q585.8910000000001,494.3125,586.367,493.1953Q586.852,492.0781,586.852,490.6406Q586.852,489.2266,586.3589999999999,488.1016Q585.867,486.9688,584.977,486.3438Q584.086,485.7188,582.961,485.7188Q581.8050000000001,485.7188,580.8910000000001,486.3438Q579.9839999999999,486.9688,579.469,488.0859Q578.953,489.2031,578.953,490.6406Q578.953,492.0781,579.477,493.1953Q580.008,494.3125,580.9300000000001,494.9375Q581.8589999999999,495.5625,583.031,495.5625ZM592.25,496.9766L592.25,478.78125L594.031,478.78125L594.031,486.25L594.148,486.25Q594.727,485.2188,595.852,484.5938Q596.977,483.9688,598.203,483.9688Q600.312,483.9688,601.5160000000001,485.2891Q602.719,486.6094,602.719,488.9844L602.719,496.9766L600.938,496.9766L600.938,489.2734Q600.938,487.6172,600.039,486.6094Q599.1410000000001,485.6016,597.773,485.6016Q596.117,485.6016,595.0699999999999,486.6953Q594.031,487.7812,594.031,489.4609L594.031,496.9766L592.25,496.9766ZM612.4449999999999,485.9844L608.773,485.9844L608.773,493.4453Q608.773,494.5547,609.3199999999999,495.1641Q609.875,495.7734,610.8589999999999,495.7734Q611.367,495.7734,612.156,495.5156L612.156,497.1719Q611.508,497.4297,610.5,497.4297Q608.797,497.4297,607.883,496.4375Q606.969,495.4375,606.969,493.5938L606.969,485.9844L604.977,485.9844L604.977,484.3047L606.969,484.3047L606.969,480.34375L608.773,480.34375L608.773,484.3047L612.4449999999999,484.3047L612.4449999999999,485.9844ZM618.828,497.3125Q617.031,497.3125,615.7339999999999,496.5547Q614.438,495.7969,613.742,494.5078L615.258,493.6172Q615.828,494.6016,616.75,495.1406Q617.6800000000001,495.6797,618.883,495.6797Q620.1800000000001,495.6797,620.9300000000001,495.1641Q621.688,494.6484,621.688,493.7578Q621.688,492.9219,620.9449999999999,492.3984Q620.203,491.8672,618.523,491.5078Q616.312,490.9766,615.219,490.1172Q614.125,489.25,614.125,487.8281Q614.125,486.0547,615.3589999999999,485.0156Q616.602,483.9688,618.7339999999999,483.9688Q620.3199999999999,483.9688,621.531,484.6562Q622.742,485.3359,623.539,486.6094L622.117,487.6172Q621.492,486.6328,620.617,486.1172Q619.742,485.6016,618.711,485.6016Q617.461,485.6016,616.719,486.1562Q615.977,486.7031,615.977,487.6172Q615.977,488.4062,616.781,488.9609Q617.586,489.5156,619.1949999999999,489.8984Q623.5160000000001,490.8281,623.5160000000001,493.4688Q623.5160000000001,495.25,622.25,496.2812Q620.992,497.3125,618.828,497.3125ZM647.5699999999999,496.9766L645.383,496.9766L640.773,489.1797L640.25,489.1797L636.7660000000001,489.1797L636.7660000000001,496.9766L634.922,496.9766L634.922,478.78125L640.0550000000001,478.78125Q643.3199999999999,478.78125,645.086,480.15625Q646.852,481.52344,646.852,484.0391Q646.852,485.9844,645.781,487.2188Q644.711,488.4531,642.6949999999999,488.9375L647.5699999999999,496.9766ZM639.914,487.3984Q642.336,487.3984,643.633,486.5234Q644.9300000000001,485.6484,644.9300000000001,484.0391Q644.9300000000001,482.3594,643.633,481.45312Q642.336,480.53906,639.914,480.53906L636.7660000000001,480.53906L636.7660000000001,487.3984L639.914,487.3984ZM660.2660000000001,489.6562Q660.2660000000001,490.4219,660.117,491.1406L650.953,491.1406Q651.0699999999999,493.2109,652.188,494.4375Q653.3050000000001,495.6562,655.102,495.6562Q656.156,495.6562,657.0699999999999,495.1562Q657.9839999999999,494.6484,658.586,493.6875L660,494.6484Q659.211,495.9219,657.969,496.6094Q656.7339999999999,497.2891,655.102,497.2891Q653.281,497.2891,651.922,496.4844Q650.5699999999999,495.6797,649.844,494.1797Q649.125,492.6797,649.125,490.6641Q649.125,488.625,649.8199999999999,487.1172Q650.523,485.6016,651.812,484.7891Q653.1089999999999,483.9688,654.867,483.9688Q657.336,483.9688,658.797,485.5156Q660.2660000000001,487.0625,660.2660000000001,489.6562ZM658.438,489.5391Q658.438,487.7578,657.453,486.6797Q656.469,485.6016,654.867,485.6016Q653.328,485.6016,652.3050000000001,486.6562Q651.289,487.7109,651.023,489.5391L658.438,489.5391ZM667.328,497.3125Q665.531,497.3125,664.2339999999999,496.5547Q662.938,495.7969,662.242,494.5078L663.758,493.6172Q664.328,494.6016,665.25,495.1406Q666.1800000000001,495.6797,667.383,495.6797Q668.6800000000001,495.6797,669.4300000000001,495.1641Q670.188,494.6484,670.188,493.7578Q670.188,492.9219,669.4449999999999,492.3984Q668.703,491.8672,667.023,491.5078Q664.812,490.9766,663.719,490.1172Q662.625,489.25,662.625,487.8281Q662.625,486.0547,663.8589999999999,485.0156Q665.102,483.9688,667.2339999999999,483.9688Q668.8199999999999,483.9688,670.031,484.6562Q671.242,485.3359,672.039,486.6094L670.617,487.6172Q669.992,486.6328,669.117,486.1172Q668.242,485.6016,667.211,485.6016Q665.961,485.6016,665.219,486.1562Q664.477,486.7031,664.477,487.6172Q664.477,488.4062,665.281,488.9609Q666.086,489.5156,667.6949999999999,489.8984Q672.0160000000001,490.8281,672.0160000000001,493.4688Q672.0160000000001,495.25,670.75,496.2812Q669.492,497.3125,667.328,497.3125ZM685.2660000000001,489.6562Q685.2660000000001,490.4219,685.117,491.1406L675.953,491.1406Q676.0699999999999,493.2109,677.188,494.4375Q678.3050000000001,495.6562,680.102,495.6562Q681.156,495.6562,682.0699999999999,495.1562Q682.9839999999999,494.6484,683.586,493.6875L685,494.6484Q684.211,495.9219,682.969,496.6094Q681.7339999999999,497.2891,680.102,497.2891Q678.281,497.2891,676.922,496.4844Q675.5699999999999,495.6797,674.844,494.1797Q674.125,492.6797,674.125,490.6641Q674.125,488.625,674.8199999999999,487.1172Q675.523,485.6016,676.812,484.7891Q678.1089999999999,483.9688,679.867,483.9688Q682.336,483.9688,683.797,485.5156Q685.2660000000001,487.0625,685.2660000000001,489.6562ZM683.438,489.5391Q683.438,487.7578,682.453,486.6797Q681.469,485.6016,679.867,485.6016Q678.328,485.6016,677.3050000000001,486.6562Q676.289,487.7109,676.023,489.5391L683.438,489.5391ZM688.25,496.9766L688.25,484.3047L690.031,484.3047L690.031,486.8516L690.148,486.8516Q690.914,485.5312,692.164,484.75Q693.414,483.9688,694.969,483.9688L695.164,483.9688L695.164,485.8906L694.922,485.8906Q693.461,485.8906,692.344,486.4297Q691.227,486.9688,690.625,487.8438Q690.031,488.7188,690.031,489.6797L690.031,496.9766L688.25,496.9766ZM700.5160000000001,496.9766L695.6410000000001,484.3047L697.586,484.3047L701.453,494.7188L701.594,494.7188L705.461,484.3047L707.383,484.3047L702.461,496.9766L700.5160000000001,496.9766ZM719.766,489.6562Q719.766,490.4219,719.617,491.1406L710.453,491.1406Q710.57,493.2109,711.688,494.4375Q712.805,495.6562,714.602,495.6562Q715.656,495.6562,716.57,495.1562Q717.484,494.6484,718.086,493.6875L719.5,494.6484Q718.711,495.9219,717.469,496.6094Q716.234,497.2891,714.602,497.2891Q712.781,497.2891,711.422,496.4844Q710.07,495.6797,709.344,494.1797Q708.625,492.6797,708.625,490.6641Q708.625,488.625,709.32,487.1172Q710.023,485.6016,711.312,484.7891Q712.609,483.9688,714.367,483.9688Q716.836,483.9688,718.297,485.5156Q719.766,487.0625,719.766,489.6562ZM717.938,489.5391Q717.938,487.7578,716.953,486.6797Q715.969,485.6016,714.367,485.6016Q712.828,485.6016,711.805,486.6562Q710.789,487.7109,710.523,489.5391L717.938,489.5391ZM733.578,496.9766L731.797,496.9766L731.797,494.9609L731.656,494.9609Q731.031,496.0859,729.977,496.7031Q728.922,497.3125,727.602,497.3125Q726.039,497.3125,724.789,496.4375Q723.547,495.5625,722.836,494.0156Q722.125,492.4609,722.125,490.5234Q722.125,488.625,722.836,487.125Q723.547,485.625,724.789,484.7969Q726.039,483.9688,727.602,483.9688Q728.82,483.9688,729.875,484.5938Q730.938,485.2188,731.656,486.3203L731.797,486.3203L731.797,478.78125L733.578,478.78125L733.578,496.9766ZM731.852,490.6406Q731.852,489.2266,731.344,488.1016Q730.844,486.9688,729.953,486.3438Q729.062,485.7188,727.938,485.7188Q726.781,485.7188,725.883,486.3438Q724.984,486.9688,724.469,488.0859Q723.953,489.2031,723.953,490.6406Q723.953,492.0781,724.469,493.1953Q724.984,494.3125,725.906,494.9375Q726.828,495.5625,728.008,495.5625Q729.109,495.5625,729.984,494.9375Q730.867,494.3125,731.359,493.1953Q731.852,492.0781,731.852,490.6406ZM737.25,496.9766L737.25,494.6484L739.555,494.6484L739.555,496.9766L737.25,496.9766Z" fill="#3D3D3D" fill-opacity="1"/></g><g style="mix-blend-mode:passthrough"><g style="mix-blend-mode:passthrough"><path d="M143.65084838867188,321.3964050292969Q143.65084554950187,343.99240502929683,154.92594838867188,356.0084050292969Q167.73014838867186,369.6534050292969,195.07524838867187,369.6534050292969L268.6188483886719,369.6534050292969L316.99784838867185,369.6534050292969Q371.7878483886719,369.6534050292969,371.7878483886719,321.3964050292969L371.7878483886719,197.30990502929689Q371.7878483886719,142.34641924409686,316.99784838867185,142.3464092937469L195.07524838867187,142.3464092937469Q143.65085409539188,142.3464092937469,143.65084838867188,197.30990502929689L143.65084838867188,321.3964050292969Z" fill="url(#master_svg2_2_5966)" fill-opacity="1"/><path d="M123.65084838867188,321.3964050292969L123.65084838867188,197.30990502929689Q123.65084838867188,161.93080502929686,141.90242838867186,142.4231510292969Q151.64825838867188,132.00660502929688,165.86484838867187,126.94160502929688Q178.76274838867187,122.34640502929688,195.07524838867187,122.34640502929688L252.45384838867187,122.34640502929688L316.99784838867185,122.34640502929688Q333.9508483886719,122.34640502929688,347.31084838867184,126.81400502929688Q362.0678483886719,131.74860502929687,372.2548483886719,141.96746502929687Q382.4318483886719,152.17694502929686,387.3428483886719,166.95670502929687Q391.7878483886719,180.33310502929686,391.7878483886719,197.30990502929689L391.7878483886719,321.3964050292969Q391.7878483886719,337.1194050292969,387.0688483886719,349.58840502929684Q381.8858483886719,363.2824050292969,371.3088483886719,372.59740502929685Q351.94484838867186,389.6534050292969,316.99784838867185,389.6534050292969L252.45384838867187,389.6534050292969L195.07524838867187,389.6534050292969Q161.44864838867187,389.6534050292969,142.82121338867188,372.1734050292969Q132.85614838867187,362.8224050292969,128.0185483886719,349.20340502929685Q123.65084838867188,336.9074050292969,123.65084838867188,321.3964050292969L123.65084838867188,321.3964050292969ZM163.65084838867188,321.3964050292969Q163.65084838867188,336.8654050292969,170.19264838867187,343.0044050292969Q173.27914838867187,345.9014050292969,178.5477483886719,347.54940502929685Q185.27404838867187,349.6534050292969,195.07524838867187,349.6534050292969L252.45384838867187,349.6534050292969L316.99784838867185,349.6534050292969Q327.81984838867186,349.6534050292969,335.33484838867184,347.4464050292969Q341.3518483886719,345.6804050292969,344.8718483886719,342.5804050292969Q351.7878483886719,336.48840502929687,351.7878483886719,321.3964050292969L351.7878483886719,197.30990502929689Q351.7878483886719,178.09400502929688,343.92584838867185,170.20710502929688Q336.08984838867184,162.34640502929688,316.99784838867185,162.34640502929688L252.45384838867187,162.34640502929688L195.07524838867187,162.34640502929688Q178.03964838867188,162.34640502929688,171.11144838867187,169.75140502929688Q167.80954838867189,173.28050502929688,165.95784838867186,179.21790502929687Q163.65084838867188,186.61540502929688,163.65084838867188,197.30990502929689L163.65084838867188,321.3964050292969L163.65084838867188,321.3964050292969Z" fill="url(#master_svg3_2_5430)" fill-opacity="1"/></g><g style="mix-blend-mode:passthrough"><path d="M248.40465986328124,286.38646655273436L234.94083986328124,286.38646655273436Q235.61869986328125,274.1655665527344,238.47625986328126,266.4683665527344Q241.33965986328124,258.7652665527344,245.37765986328125,253.65906655273437Q249.41565986328123,248.54696655273438,253.79255986328124,244.44806655273436Q258.16945986328125,240.34906655273437,261.7866598632813,235.57466655273439Q265.4039598632813,230.80026655273437,267.42585986328123,223.43496655273438Q269.78085986328125,214.73626655273438,267.75895986328123,208.54126655273438Q265.74285986328124,202.34046655273437,258.16945986328125,202.34046655273437Q253.28995986328124,202.34046655273437,249.58505986328126,206.5267665527344Q245.88015986328125,210.71306655273438,243.35575986328126,220.08706655273437L227.70635986328125,216.40146655273438Q230.90284986328126,202.99836655273438,238.64575986328126,194.45688655273437Q246.38855986328124,185.90960355273438,260.69395986328124,186.24730255273437Q272.13585986328127,186.41032955273437,278.35935986328127,191.94160655273438Q284.58875986328127,197.46706655273437,286.27175986328126,205.92706655273437Q287.95475986328125,214.38116655273438,285.59965986328126,223.75516655273438Q283.41415986328127,232.29666655273437,279.28855986328125,238.41016655273438Q275.16875986328125,244.52376655273437,270.2834598632812,249.46106655273437Q265.4039598632813,254.39846655273436,260.68805986328124,259.4232665527344Q255.97805986328126,264.4479665527344,252.61215986328125,270.8118665527344Q249.24615986328126,277.1757665527344,248.40465986328124,286.38646655273436ZM238.14315986328126,324.9364665527344Q233.25785986328125,324.9364665527344,230.48210986328124,321.58346655273436Q227.70635986328125,318.2294665527344,228.54784986328124,312.19146655273437Q229.38933986328124,306.32246655273434,233.00657986328125,302.9694665527344Q236.62381986328126,299.61546655273435,241.33965986328124,299.61546655273435Q246.21915986328125,299.61546655273435,248.82545986328125,302.9694665527344Q251.43755986328125,306.32246655273434,250.59605986328125,312.19146655273437Q249.75455986328126,318.2294665527344,246.30095986328126,321.58346655273436Q242.85315986328126,324.9364665527344,238.14315986328126,324.9364665527344Z" fill="#3D3D3D" fill-opacity="1"/></g><g style="mix-blend-mode:passthrough" filter="url(#master_svg4_31_2084)"><path d="M123,276.701L220.3662,276.701Q238.635,276.701,238.635,296.063L238.635,389L277.503,389L277.503,296.063Q277.503,276.701,296.15999999999997,276.701L391,276.701L391,237.978L296.15999999999997,237.978Q277.503,237.978,277.503,218.2284L277.892,122L239.023,122L238.635,218.2284Q238.635,237.978,220.3662,237.978L123,237.978L123,276.701Z" fill="#FF2200" fill-opacity="0.800000011920929"/></g></g></g></svg>