<svg xmlns="http://www.w3.org/2000/svg" xmlns:xlink="http://www.w3.org/1999/xlink" fill="none" version="1.1" width="512" height="512" viewBox="0 0 512 512"><defs><clipPath id="master_svg0_26_31"><rect x="0" y="0" width="512" height="512" rx="0"/></clipPath><linearGradient x1="1" y1="0" x2="0" y2="1" id="master_svg1_26_36"><stop offset="0%" stop-color="#0A37FF" stop-opacity="1"/><stop offset="100.00001192092896%" stop-color="#35B5FF" stop-opacity="1"/></linearGradient></defs><g style="mix-blend-mode:passthrough" clip-path="url(#master_svg0_26_31)"><g style="mix-blend-mode:passthrough"><path d="M434,276L78,276Q77.509028,276,77.018647,275.976Q76.52827,275.952,76.03966,275.904Q75.55105,275.856,75.06539,275.784Q74.57973,275.711,74.09819,275.616Q73.61666,275.52,73.1404,275.401Q72.66414,275.281,72.19431,275.139Q71.72448,274.996,71.2622,274.831Q70.79993,274.66499999999996,70.34633,274.478Q69.89273,274.28999999999996,69.4489,274.08000000000004Q69.00507,273.87,68.57207,273.63800000000003Q68.13907,273.40700000000004,67.7179,273.155Q67.2968,272.902,66.8886,272.629Q66.4804,272.35699999999997,66.086,272.06399999999996Q65.6917,271.772,65.3121,271.46000000000004Q64.93260000000001,271.149,64.5688,270.81899999999996Q64.205,270.48900000000003,63.8579,270.142Q63.5107,269.79499999999996,63.181,269.43100000000004Q62.8513,269.067,62.5398,268.688Q62.228300000000004,268.308,61.935900000000004,267.914Q61.6434,267.52,61.370599999999996,267.111Q61.0978,266.703,60.8454,266.282Q60.593,265.861,60.361599999999996,265.428Q60.1301,264.995,59.9202,264.551Q59.710300000000004,264.10699999999997,59.522400000000005,263.654Q59.3345,263.2,59.1691,262.738Q59.003699999999995,262.276,58.8612,261.806Q58.7187,261.336,58.5994,260.86Q58.4801,260.383,58.384299999999996,259.902Q58.2885,259.42,58.216499999999996,258.935Q58.144400000000005,258.449,58.0963,257.96Q58.0482,257.472,58.024100000000004,256.981Q58,256.491,58,256Q58,255.50900000000001,58.024100000000004,255.019Q58.0482,254.52800000000002,58.0963,254.04000000000002Q58.144400000000005,253.551,58.216499999999996,253.065Q58.2885,252.57999999999998,58.384299999999996,252.098Q58.4801,251.61700000000002,58.5994,251.14Q58.7187,250.664,58.8612,250.19400000000002Q59.003699999999995,249.724,59.1691,249.262Q59.3345,248.8,59.522400000000005,248.346Q59.710300000000004,247.893,59.9202,247.449Q60.1301,247.005,60.361599999999996,246.572Q60.593,246.139,60.8454,245.71800000000002Q61.0978,245.297,61.370599999999996,244.889Q61.6434,244.48000000000002,61.935900000000004,244.086Q62.228300000000004,243.692,62.5398,243.312Q62.8513,242.933,63.181,242.56900000000002Q63.5107,242.20499999999998,63.8579,241.858Q64.205,241.511,64.5688,241.18099999999998Q64.93260000000001,240.85129999999998,65.3121,240.5398Q65.6917,240.2283,66.086,239.9358Q66.4804,239.64339999999999,66.8886,239.3706Q67.2968,239.0978,67.7179,238.84539999999998Q68.13907,238.59300000000002,68.57207,238.3616Q69.00507,238.1301,69.4489,237.9202Q69.89273,237.71030000000002,70.34633,237.5224Q70.79993,237.3345,71.2622,237.16910000000001Q71.72448,237.00369999999998,72.19431,236.8612Q72.66414,236.7187,73.1404,236.5994Q73.61666,236.4801,74.09819,236.3843Q74.57973,236.2885,75.06539,236.2165Q75.55105,236.14440000000002,76.03966,236.09629999999999Q76.52827,236.0482,77.018647,236.0241Q77.509028,236,78,236L434,236Q434.491,236,434.981,236.0241Q435.472,236.0482,435.96,236.09629999999999Q436.449,236.14440000000002,436.935,236.2165Q437.42,236.2885,437.902,236.3843Q438.383,236.4801,438.86,236.5994Q439.336,236.7187,439.806,236.8612Q440.275,237.00369999999998,440.738,237.16910000000001Q441.2,237.3345,441.654,237.5224Q442.107,237.71030000000002,442.551,237.9202Q442.995,238.1301,443.428,238.3616Q443.861,238.59300000000002,444.282,238.84539999999998Q444.703,239.0978,445.111,239.3706Q445.52,239.64339999999999,445.914,239.9358Q446.308,240.2283,446.688,240.5398Q447.067,240.85129999999998,447.431,241.18099999999998Q447.795,241.511,448.142,241.858Q448.489,242.20499999999998,448.819,242.56900000000002Q449.149,242.933,449.46,243.312Q449.772,243.692,450.064,244.086Q450.357,244.48000000000002,450.629,244.889Q450.902,245.297,451.155,245.71800000000002Q451.407,246.139,451.638,246.572Q451.87,247.005,452.08,247.449Q452.29,247.893,452.478,248.346Q452.665,248.8,452.831,249.262Q452.996,249.724,453.139,250.19400000000002Q453.281,250.664,453.401,251.14Q453.52,251.61700000000002,453.616,252.098Q453.711,252.57999999999998,453.784,253.065Q453.856,253.551,453.904,254.04000000000002Q453.952,254.52800000000002,453.976,255.019Q454,255.50900000000001,454,256Q454,256.491,453.976,256.981Q453.952,257.472,453.904,257.96Q453.856,258.449,453.784,258.935Q453.711,259.42,453.616,259.902Q453.52,260.383,453.401,260.86Q453.281,261.336,453.139,261.806Q452.996,262.276,452.831,262.738Q452.665,263.2,452.478,263.654Q452.29,264.10699999999997,452.08,264.551Q451.87,264.995,451.638,265.428Q451.407,265.861,451.155,266.282Q450.902,266.703,450.629,267.111Q450.357,267.52,450.064,267.914Q449.772,268.308,449.46,268.688Q449.149,269.067,448.819,269.43100000000004Q448.489,269.79499999999996,448.142,270.142Q447.795,270.48900000000003,447.431,270.81899999999996Q447.067,271.149,446.688,271.46000000000004Q446.308,271.772,445.914,272.06399999999996Q445.52,272.35699999999997,445.111,272.629Q444.703,272.902,444.282,273.155Q443.861,273.40700000000004,443.428,273.63800000000003Q442.995,273.87,442.551,274.08000000000004Q442.107,274.28999999999996,441.654,274.478Q441.2,274.66499999999996,440.738,274.831Q440.275,274.996,439.806,275.139Q439.336,275.281,438.86,275.401Q438.383,275.52,437.902,275.616Q437.42,275.711,436.935,275.784Q436.449,275.856,435.96,275.904Q435.472,275.952,434.981,275.976Q434.491,276,434,276ZM182.041,385.323L64.0411,270.323Q63.6895,269.98,63.3551,269.621Q63.0208,269.26099999999997,62.7044,268.88599999999997Q62.3881,268.51,62.0906,268.12Q61.793,267.729,61.515,267.325Q61.236999999999995,266.92,60.9792,266.502Q60.7214,266.084,60.4844,265.654Q60.2474,265.224,60.031800000000004,264.783Q59.816199999999995,264.342,59.6225,263.891Q59.428799999999995,263.44,59.257400000000004,262.98Q59.0861,262.52,58.9375,262.052Q58.789,261.584,58.6636,261.109Q58.5381,260.634,58.4362,260.154Q58.334199999999996,259.674,58.2559,259.18899999999996Q58.1776,258.704,58.1232,258.216Q58.068799999999996,257.728,58.038399999999996,257.238Q58.007999999999996,256.748,58.0017,256.257Q57.9953,255.767,58.0131,255.276Q58.0309,254.785,58.0727,254.296Q58.1145,253.80700000000002,58.1803,253.32Q58.2461,252.834,58.3357,252.351Q58.4253,251.868,58.538399999999996,251.39100000000002Q58.6516,250.913,58.788,250.441Q58.924499999999995,249.97,59.0839,249.505Q59.2434,249.041,59.425399999999996,248.58499999999998Q59.6074,248.12900000000002,59.8116,247.68200000000002Q60.0158,247.236,60.2417,246.8Q60.4675,246.364,60.7145,245.94Q60.9614,245.515,61.228899999999996,245.10399999999998Q61.4964,244.692,61.7838,244.29399999999998Q62.0712,243.89600000000002,62.377700000000004,243.512Q62.6843,243.12900000000002,63.009299999999996,242.761Q63.3343,242.393,63.677,242.041Q63.856700000000004,241.857,64.0411,241.67700000000002L182.041,126.67699999999999Q182.393,126.3343,182.761,126.0093Q183.12900000000002,125.68430000000001,183.512,125.3777Q183.89600000000002,125.0712,184.29399999999998,124.7838Q184.692,124.4964,185.10399999999998,124.2289Q185.515,123.9614,185.94,123.7145Q186.364,123.4675,186.8,123.24170000000001Q187.236,123.0158,187.68200000000002,122.8116Q188.12900000000002,122.6074,188.58499999999998,122.4254Q189.041,122.24340000000001,189.505,122.0839Q189.97,121.9245,190.441,121.788Q190.913,121.6516,191.39100000000002,121.5384Q191.868,121.4253,192.351,121.3357Q192.834,121.2461,193.32,121.1803Q193.80700000000002,121.11449999999999,194.296,121.0727Q194.785,121.0309,195.276,121.01310000000001Q195.767,120.9953,196.257,121.0017Q196.748,121.008,197.238,121.0384Q197.728,121.0688,198.216,121.1232Q198.704,121.1776,199.189,121.2559Q199.674,121.3342,200.154,121.4362Q200.63400000000001,121.5381,201.10899999999998,121.6636Q201.584,121.789,202.05200000000002,121.9375Q202.51999999999998,122.0861,202.98000000000002,122.2574Q203.44,122.4288,203.89100000000002,122.6225Q204.34199999999998,122.8162,204.78300000000002,123.0318Q205.224,123.2474,205.654,123.4844Q206.084,123.7214,206.502,123.97919999999999Q206.92,124.237,207.325,124.515Q207.729,124.793,208.12,125.0906Q208.51,125.3881,208.886,125.70439999999999Q209.261,126.0208,209.621,126.3551Q209.98,126.6895,210.323,127.0411Q210.666,127.3927,210.991,127.7607Q211.316,128.1287,211.622,128.5122Q211.929,128.8957,212.216,129.2938Q212.504,129.6919,212.771,130.1036Q213.039,130.5153,213.286,130.9397Q213.532,131.36399,213.758,131.79993Q213.984,132.23588,214.188,132.68237Q214.393,133.12887,214.575,133.58485Q214.757,134.04083,214.916,134.5052Q215.076,134.96956,215.212,135.44119Q215.348,135.91282,215.462,136.39057Q215.575,136.86833000000001,215.664,137.35106Q215.754,137.83379,215.82,138.32034Q215.885,138.80688,215.927,139.29607Q215.969,139.78526,215.987,140.275906Q216.005,140.766557,215.998,141.257488Q215.992,141.74842,215.962,142.23845Q215.931,142.72848,215.877,143.21643Q215.822,143.70438,215.744,144.18907Q215.666,144.67376,215.564,145.15402Q215.462,145.63429,215.336,146.10897Q215.211,146.58366,215.062,147.05161Q214.914,147.51957,214.743,147.97967Q214.571,148.43978,214.378,148.89092Q214.184,149.34206,213.968,149.78316Q213.753,150.22425,213.516,150.65424Q213.279,151.0842,213.021,151.5021Q212.763,151.9199,212.485,152.3246Q212.207,152.7293,211.909,153.1198Q211.612,153.5104,211.296,153.8859Q210.979,154.2613,210.645,154.6209Q210.311,154.9804,209.959,155.323L91.9589,270.323L78,256L91.9589,241.67700000000002L209.959,356.677Q210.311,357.02,210.645,357.379Q210.979,357.73900000000003,211.296,358.11400000000003Q211.612,358.49,211.909,358.88Q212.207,359.27099999999996,212.485,359.675Q212.763,360.08000000000004,213.021,360.498Q213.279,360.916,213.516,361.346Q213.753,361.776,213.968,362.217Q214.184,362.658,214.378,363.10900000000004Q214.571,363.56,214.743,364.02Q214.914,364.48,215.062,364.948Q215.211,365.416,215.336,365.89099999999996Q215.462,366.366,215.564,366.846Q215.666,367.326,215.744,367.81100000000004Q215.822,368.296,215.877,368.784Q215.931,369.272,215.962,369.762Q215.992,370.252,215.998,370.743Q216.005,371.233,215.987,371.724Q215.969,372.21500000000003,215.927,372.704Q215.885,373.193,215.82,373.68Q215.754,374.166,215.664,374.649Q215.575,375.132,215.462,375.60900000000004Q215.348,376.087,215.212,376.55899999999997Q215.076,377.03,214.916,377.495Q214.757,377.959,214.575,378.41499999999996Q214.393,378.871,214.188,379.318Q213.984,379.764,213.758,380.2Q213.532,380.63599999999997,213.286,381.06Q213.039,381.485,212.771,381.89599999999996Q212.504,382.308,212.216,382.706Q211.929,383.10400000000004,211.622,383.488Q211.316,383.871,210.991,384.23900000000003Q210.666,384.60699999999997,210.323,384.959Q209.98,385.31100000000004,209.621,385.645Q209.261,385.97900000000004,208.886,386.296Q208.51,386.61199999999997,208.12,386.909Q207.729,387.207,207.325,387.485Q206.92,387.76300000000003,206.502,388.02099999999996Q206.084,388.279,205.654,388.51599999999996Q205.224,388.753,204.78300000000002,388.96799999999996Q204.34199999999998,389.18399999999997,203.89100000000002,389.377Q203.44,389.571,202.98000000000002,389.743Q202.51999999999998,389.914,202.05200000000002,390.062Q201.584,390.211,201.10899999999998,390.336Q200.63400000000001,390.462,200.154,390.56399999999996Q199.674,390.666,199.189,390.744Q198.704,390.822,198.216,390.877Q197.728,390.93100000000004,197.238,390.962Q196.748,390.99199999999996,196.257,390.998Q195.767,391.005,195.276,390.98699999999997Q194.785,390.969,194.296,390.927Q193.80700000000002,390.885,193.32,390.82Q192.834,390.754,192.351,390.664Q191.868,390.575,191.39100000000002,390.462Q190.913,390.348,190.441,390.212Q189.97,390.075,189.505,389.916Q189.041,389.757,188.58499999999998,389.575Q188.12900000000002,389.39300000000003,187.68200000000002,389.188Q187.236,388.98400000000004,186.8,388.75800000000004Q186.364,388.53200000000004,185.94,388.28499999999997Q185.515,388.039,185.10399999999998,387.77099999999996Q184.692,387.504,184.29399999999998,387.216Q183.89600000000002,386.929,183.512,386.622Q183.12900000000002,386.31600000000003,182.761,385.991Q182.393,385.666,182.041,385.323Z" fill="url(#master_svg1_26_36)" fill-opacity="1"/></g></g></svg>