<svg xmlns="http://www.w3.org/2000/svg" xmlns:xlink="http://www.w3.org/1999/xlink" fill="none" version="1.1" width="1024" height="1024" viewBox="0 0 1024 1024"><defs><linearGradient x1="1" y1="-0.6584289073944092" x2="0" y2="1" id="master_svg0_2_5430"><stop offset="0%" stop-color="#00DDFF" stop-opacity="1"/><stop offset="100.00005960464478%" stop-color="#BFFF00" stop-opacity="1"/></linearGradient></defs><g style="mix-blend-mode:passthrough"><g style="mix-blend-mode:passthrough"><path d="M107,734.108L107,312.672Q107,204.2231,158.1309,146.2178Q185.2674,115.4329,225.41070000000002,100.2527Q263.101,86,311.549,86L495.15,86L701.68,86Q752.398,86,791.762,99.9709Q833.773,114.8815,862.327,145.2843Q917,203.4974,917,312.672L917,734.108Q917,781.999,903.719,819.245Q889.498,859.126,860.486,886.248Q805.125,938,701.68,938L495.15,938L311.549,938Q263.945,938,226.9553,925.719Q187.1567,912.506,159.9097,885.368Q132.6388,858.206,119.3522,818.506Q107,781.597,107,734.108L107,734.108ZM187,734.108Q187,799.439,216.3649,828.686Q245.7962,858,311.549,858L495.15,858L701.68,858Q739.422,858,766.483,849.568Q790.622,842.046,805.854,827.807Q820.672,813.955,828.366,792.376Q837,768.163,837,734.108L837,312.672Q837,272.119,827.869,242.954Q819.651,216.70260000000002,804.013,200.0519Q788.737,183.7866,765.004,175.3632Q738.622,166,701.68,166L495.15,166L311.549,166Q277.722,166,253.707,175.0813Q232.14440000000002,183.2352,218.1437,199.1183Q203.4441,215.7942,195.6619,242.28Q187,271.759,187,312.672L187,734.108L187,734.108Z" fill="url(#master_svg0_2_5430)" fill-opacity="1"/></g><g style="mix-blend-mode:passthrough"><path d="M478.1819,626.308L427.9766,626.308Q430.5043,580.755,441.1599,552.0640000000001Q451.8372,523.352,466.8945,504.31899999999996Q481.9517,485.264,498.2728,469.985Q514.594,454.707,528.082,436.911Q541.571,419.115,549.11,391.661Q557.892,359.238,550.352,336.1465Q542.8340000000001,313.03340000000003,514.594,313.03340000000003Q496.3988,313.03340000000003,482.5836,328.6375Q468.7684,344.2415,459.355,379.182L401,365.445Q412.9194,315.4858,441.7918,283.6483Q470.6642,251.7891,524.0070000000001,253.047845Q566.673,253.655513,589.88,274.2728Q613.109,294.8685,619.384,326.4021Q625.66,357.914,616.8779999999999,392.855Q608.729,424.692,593.345,447.48Q577.982,470.26800000000003,559.766,488.671Q541.571,507.075,523.986,525.804Q506.422,544.533,493.8711,568.254Q481.3198,591.975,478.1819,626.308ZM439.9178,770Q421.701,770,411.3505,757.499Q401,744.999,404.13783,722.4929999999999Q407.27566,700.617,420.764,688.117Q434.2523,675.616,451.8372,675.616Q470.0323,675.616,479.7509,688.117Q489.4912,700.617,486.35339999999997,722.4929999999999Q483.2156,744.999,470.3374,757.499Q457.481,770,439.9178,770Z" fill="#000000" fill-opacity="1"/></g></g></svg>