<svg xmlns="http://www.w3.org/2000/svg" xmlns:xlink="http://www.w3.org/1999/xlink" fill="none" version="1.1" width="512" height="512" viewBox="0 0 512 512"><defs><clipPath id="master_svg0_26_54"><rect x="0" y="0" width="512" height="512" rx="0"/></clipPath><filter id="master_svg1_26_56" filterUnits="objectBoundingBox" color-interpolation-filters="sRGB" x="-20" y="-16" width="387" height="319"><feFlood flood-opacity="0" result="BackgroundImageFix"/><feColorMatrix in="SourceAlpha" type="matrix" values="0 0 0 0 0 0 0 0 0 0 0 0 0 0 0 0 0 0 127 0"/><feOffset dy="4" dx="0"/><feGaussianBlur stdDeviation="5"/><feColorMatrix type="matrix" values="0 0 0 0 0 0 0 0 0 0 0 0 0 0 0 0 0 0 0.3019607961177826 0"/><feBlend mode="normal" in2="BackgroundImageFix" result="effect1_dropShadow"/><feBlend mode="normal" in="SourceGraphic" in2="effect1_dropShadow" result="shape"/></filter><linearGradient x1="1" y1="0" x2="0" y2="1" id="master_svg2_26_59"><stop offset="0%" stop-color="#0831FF" stop-opacity="1"/><stop offset="99.99995827674866%" stop-color="#37BBFF" stop-opacity="1"/></linearGradient></defs><g style="mix-blend-mode:passthrough" clip-path="url(#master_svg0_26_54)"><g style="mix-blend-mode:passthrough" filter="url(#master_svg1_26_56)"><path d="M119.1661,118.10531Q114.18180000000001,116,108.7495,116Q103.3172,116,98.33279999999999,118.10531Q93.5297,120.13405,89.83474,123.82399Q86.13973,127.5139,84.10821,132.31040000000002Q82,137.2879,82,142.71280000000002Q82,148.1376,84.10821,153.11509999999998Q86.13973,157.9116,89.83474,161.6015Q93.5297,165.29149999999998,98.33279999999999,167.3202Q103.3172,169.4255,108.7495,169.4255Q114.18180000000001,169.4255,119.1661,167.3202Q123.9692,165.29149999999998,127.6642,161.6015Q131.3592,157.9116,133.3907,153.11509999999998Q135.4989,148.1376,135.4989,142.71280000000002Q135.4989,137.2879,133.3907,132.31040000000002Q131.3592,127.5139,127.6642,123.82399Q123.9692,120.13405,119.1661,118.10531ZM414.139,127.8723L196.428,127.8723C188.221,127.8723,181.5675,134.5166,181.5675,142.71280000000002C181.5675,150.90890000000002,188.221,157.5532,196.428,157.5532L414.139,157.5532C422.347,157.5532,429,150.90890000000002,429,142.71280000000002C429,134.5166,422.347,127.8723,414.139,127.8723ZM119.1661,230.893Q114.18180000000001,228.787,108.7495,228.787Q103.3172,228.787,98.33279999999999,230.893Q93.5297,232.921,89.83474,236.611Q86.13973,240.301,84.10821,245.098Q82,250.075,82,255.5Q82,260.925,84.10821,265.902Q86.13973,270.699,89.83474,274.389Q93.5297,278.079,98.33279999999999,280.10699999999997Q103.3172,282.21299999999997,108.7495,282.21299999999997Q114.18180000000001,282.21299999999997,119.1661,280.10699999999997Q123.9692,278.079,127.6642,274.389Q131.3592,270.699,133.3907,265.902Q135.4989,260.925,135.4989,255.5Q135.4989,250.075,133.3907,245.098Q131.3592,240.301,127.6642,236.611Q123.9692,232.921,119.1661,230.893ZM414.139,240.66L196.428,240.66C188.221,240.66,181.5675,247.304,181.5675,255.5C181.5675,263.696,188.221,270.34000000000003,196.428,270.34000000000003L414.139,270.34000000000003C422.347,270.34000000000003,429,263.696,429,255.5C429,247.304,422.347,240.66,414.139,240.66ZM119.1661,343.68Q114.18180000000001,341.574,108.7495,341.574Q103.3172,341.574,98.33279999999999,343.68Q93.5297,345.709,89.83474,349.398Q86.13973,353.08799999999997,84.10821,357.885Q82,362.86199999999997,82,368.28700000000003Q82,373.712,84.10821,378.69Q86.13973,383.486,89.83474,387.176Q93.5297,390.866,98.33279999999999,392.895Q103.3172,395,108.7495,395Q114.18180000000001,395,119.1661,392.895Q123.9692,390.866,127.6642,387.176Q131.3592,383.486,133.3907,378.69Q135.4989,373.712,135.4989,368.28700000000003Q135.4989,362.86199999999997,133.3907,357.885Q131.3592,353.08799999999997,127.6642,349.398Q123.9692,345.709,119.1661,343.68ZM414.139,353.447L196.428,353.447C188.221,353.447,181.5675,360.091,181.5675,368.28700000000003C181.5675,376.483,188.221,383.128,196.428,383.128L414.139,383.128C422.347,383.128,429,376.483,429,368.28700000000003C429,360.091,422.347,353.447,414.139,353.447Z" fill-rule="evenodd" fill="url(#master_svg2_26_59)" fill-opacity="1"/></g></g></svg>