<svg xmlns="http://www.w3.org/2000/svg" xmlns:xlink="http://www.w3.org/1999/xlink" fill="none" version="1.1" width="1024" height="1024" viewBox="0 0 1024 1024"><defs><linearGradient x1="1" y1="-0.6584289073944092" x2="0" y2="1" id="master_svg0_2_5430"><stop offset="0%" stop-color="#00DDFF" stop-opacity="1"/><stop offset="100.00005960464478%" stop-color="#BFFF00" stop-opacity="1"/></linearGradient></defs><g style="mix-blend-mode:passthrough"><g style="mix-blend-mode:passthrough"><path d="M106,733.896L106,311.914Q106,203.3431,157.1882,145.2771Q184.353,114.4624,224.5384,99.2675Q262.271,85,310.775,85L494.627,85L701.44,85Q752.217,85,791.626,98.98570000000001Q833.682,113.9111,862.266,144.3437Q917,202.6174,917,311.914L917,733.896Q917,781.841,903.704,819.127Q889.468,859.048,860.425,886.196Q805.004,938,701.44,938L494.626,938L310.775,938Q263.115,938,226.0829,925.706Q186.2423,912.48,158.9671,885.316Q131.6675,858.127,118.3666,818.387Q106,781.438,106,733.896L106,733.896ZM186,733.896Q186,799.332,215.4202,828.632Q244.90800000000002,858,310.775,858L494.626,858L701.44,858Q739.243,858,766.348,849.554Q790.533,842.019,805.795,827.752Q820.642,813.874,828.351,792.256Q837,768.003,837,733.896L837,311.914Q837,271.301,827.854,242.09Q819.622,215.79430000000002,803.954,199.1134Q788.648,182.8175,764.869,174.3786Q738.443,165,701.44,165L494.627,165L310.775,165Q276.89099999999996,165,252.833,174.0968Q231.2279,182.2661,217.1991,198.1799Q202.4718,214.8859,194.6758,241.416Q186,270.94100000000003,186,311.914L186,733.896L186,733.896Z" fill="url(#master_svg0_2_5430)" fill-opacity="1"/></g><g style="mix-blend-mode:passthrough"><path d="M682.8530000000001,599.1941L533.3530000000001,795.194Q532.907,795.78,532.432,796.343Q531.957,796.906,531.455,797.4449999999999Q530.953,797.983,530.425,798.4970000000001Q529.898,799.011,529.345,799.498Q528.793,799.985,528.217,800.4449999999999Q527.642,800.904,527.045,801.335Q526.447,801.766,525.829,802.1659999999999Q525.212,802.567,524.575,802.937Q523.938,803.307,523.284,803.646Q522.63,803.984,521.96,804.29Q521.29,804.596,520.606,804.869Q519.922,805.141,519.225,805.38Q518.528,805.619,517.821,805.823Q517.113,806.027,516.396,806.197Q515.6800000000001,806.366,514.956,806.5Q514.231,806.634,513.502,806.732Q512.7719999999999,806.83,512.038,806.892Q511.304,806.955,510.568,806.981Q509.832,807.0070000000001,509.096,806.9970000000001Q508.35900000000004,806.987,507.624,806.941Q506.889,806.895,506.15700000000004,806.813Q505.425,806.731,504.699,806.613Q503.972,806.495,503.251,806.342Q502.531,806.189,501.81899999999996,806Q501.10699999999997,805.811,500.405,805.588Q499.704,805.365,499.014,805.108Q498.324,804.85,497.647,804.559Q496.97,804.268,496.30899999999997,803.944Q495.648,803.621,495.003,803.265Q494.358,802.909,493.73199999999997,802.5219999999999Q493.105,802.135,492.498,801.717Q491.89099999999996,801.3,491.30600000000004,800.8530000000001Q489.70799999999997,799.634,488.28700000000003,798.213Q486.866,796.792,485.647,795.194L336.1468,599.1941Q335.7002,598.6086,335.2828,598.0018Q334.8654,597.395,334.4784,596.7685Q334.0913,596.142,333.7354,595.4972Q333.3795,594.8525,333.0557,594.191Q332.7318,593.5296,332.4409,592.853Q332.1499,592.1765,331.8925,591.4865Q331.635,590.79648,331.41179999999997,590.09468Q331.1885,589.39288,331,588.68097Q330.8114,587.96906,330.658,587.24875Q330.5046,586.52844,330.3867,585.80148Q330.2689,585.07451,330.1868,584.34264Q330.1047,583.61077,330.0587,582.87575Q330.0127,582.14073,330.0027,581.404342Q329.9928,580.66795,330.019,579.93196Q330.0452,579.19597,330.1075,578.46215Q330.1698,577.72833,330.2681,576.99845Q330.3663,576.26857,330.5002,575.5444Q330.6342,574.82022,330.8035,574.10348Q330.9728,573.38675,331.177,572.67918Q331.3813,571.97162,331.62,571.27493Q331.8588,570.5782,332.1314,569.8941Q332.404,569.21,332.7099,568.54Q333.0158,567.8701,333.3542,567.216Q333.6925,566.5619,334.0626,565.9251Q334.4327,565.2884,334.8335,564.6706Q335.2344,564.0528,335.6651,563.4554Q336.0958,562.858,336.5553,562.2825Q337.0148,561.707,337.5019,561.1547Q337.9891,560.6024,338.5028,560.0746Q339.0165,559.5469,339.5555,559.045Q340.0944,558.5431,340.6574,558.0683Q341.2203,557.5935,341.8059,557.1468Q342.3914,556.7002,342.9982,556.2828Q343.605,555.8654,344.2315,555.4784Q344.858,555.0913,345.5028,554.7354Q346.1475,554.3795,346.809,554.0557Q347.4704,553.7318,348.147,553.4409Q348.8235,553.1499,349.5135,552.8925Q350.20352,552.635,350.90532,552.4118Q351.60712,552.1885,352.31903,552Q353.03094,551.8114,353.75125,551.658Q354.47156,551.5046,355.19852,551.3867Q355.92549,551.2689,356.65736,551.1868Q357.38923,551.1047,358.12425,551.0587Q358.85927,551.0127,359.595658,551.0027Q360.33205,550.9928,361.06804,551.019Q361.80403,551.0452,362.53785,551.1075Q363.27167,551.1698,364.00155,551.2681Q364.73143,551.3663,365.4556,551.5002Q366.17978,551.6342,366.89652,551.8035Q367.61325,551.9728,368.32082,552.177Q369.02838,552.3813,369.72507,552.62Q370.4218,552.8588,371.1059,553.1314Q371.79,553.404,372.46,553.7099Q373.1299,554.0158,373.784,554.3542Q374.4381,554.6925,375.0749,555.0626Q375.7116,555.4327,376.3294,555.8335Q376.9472,556.2344,377.5446,556.6651Q378.142,557.0958,378.7175,557.5553Q379.293,558.0148,379.8453,558.5019Q380.3976,558.9891,380.9254,559.5028Q381.4531,560.0165,381.955,560.5555Q382.4569,561.0944,382.9317,561.6574Q383.4065,562.2203,383.8532,562.8059L533.3530000000001,758.806L509.5,777L485.647,758.806L635.1469999999999,562.8059Q635.5930000000001,562.2203,636.068,561.6574Q636.543,561.0944,637.0450000000001,560.5555Q637.547,560.0165,638.075,559.5028Q638.602,558.9891,639.155,558.5019Q639.707,558.0148,640.2819999999999,557.5553Q640.858,557.0958,641.4549999999999,556.6651Q642.053,556.2344,642.671,555.8335Q643.288,555.4327,643.925,555.0626Q644.562,554.6925,645.216,554.3542Q645.87,554.0158,646.54,553.7099Q647.21,553.404,647.894,553.1314Q648.578,552.8588,649.275,552.62Q649.972,552.3813,650.679,552.177Q651.387,551.9728,652.1030000000001,551.8035Q652.8199999999999,551.6342,653.544,551.5002Q654.269,551.3663,654.998,551.2681Q655.7280000000001,551.1698,656.462,551.1075Q657.196,551.0452,657.932,551.019Q658.668,550.9928,659.404,551.0027Q660.1410000000001,551.0127,660.876,551.0587Q661.611,551.1047,662.3430000000001,551.1868Q663.0740000000001,551.2689,663.8009999999999,551.3867Q664.528,551.5046,665.249,551.658Q665.969,551.8114,666.681,552Q667.393,552.1885,668.095,552.4118Q668.796,552.635,669.486,552.8925Q670.1759999999999,553.1499,670.8530000000001,553.4409Q671.53,553.7318,672.191,554.0557Q672.852,554.3795,673.4970000000001,554.7354Q674.142,555.0913,674.768,555.4784Q675.395,555.8654,676.002,556.2828Q676.6089999999999,556.7002,677.194,557.1468Q677.78,557.5935,678.3430000000001,558.0683Q678.906,558.5431,679.4449999999999,559.045Q679.9839999999999,559.5469,680.4970000000001,560.0746Q681.011,560.6024,681.498,561.1547Q681.985,561.707,682.4449999999999,562.2825Q682.904,562.858,683.335,563.4554Q683.7660000000001,564.0528,684.1659999999999,564.6706Q684.567,565.2884,684.937,565.9251Q685.307,566.5619,685.646,567.216Q685.9839999999999,567.8701,686.29,568.54Q686.596,569.21,686.869,569.8941Q687.1410000000001,570.5782,687.38,571.27493Q687.619,571.97162,687.823,572.67918Q688.027,573.38675,688.197,574.10348Q688.366,574.82022,688.5,575.5444Q688.634,576.26857,688.732,576.99845Q688.8299999999999,577.72833,688.892,578.46215Q688.9549999999999,579.19597,688.981,579.93196Q689.0070000000001,580.667951,688.9970000000001,581.404342Q688.9870000000001,582.14073,688.941,582.87575Q688.895,583.61077,688.813,584.34264Q688.731,585.07451,688.613,585.80148Q688.495,586.52844,688.342,587.24875Q688.1890000000001,587.96906,688,588.68097Q687.8109999999999,589.39288,687.588,590.09468Q687.365,590.79648,687.108,591.4865Q686.85,592.1765,686.559,592.853Q686.268,593.5296,685.944,594.191Q685.62,594.8525,685.265,595.4972Q684.909,596.142,684.5219999999999,596.7685Q684.135,597.395,683.717,598.0018Q683.3,598.6086,682.8530000000001,599.1941Z" fill="#000000" fill-opacity="1"/></g><g style="mix-blend-mode:passthrough"><path d="M467,269.9559C467,293.6797,486.2517,312.91179999999997,510,312.91179999999997C533.7483,312.91179999999997,553,293.6797,553,269.9559C553,246.232,533.7483,227,510,227C486.2517,227,467,246.232,467,269.9559ZM467,418.901C467,442.625,486.2517,461.85699999999997,510,461.85699999999997C533.7483,461.85699999999997,553,442.625,553,418.901C553,395.177,533.7483,375.945,510,375.945C486.2517,375.945,467,395.177,467,418.901ZM467,565.044C467,588.768,486.2517,608,510,608C533.7483,608,553,588.768,553,565.044C553,541.3199999999999,533.7483,522.088,510,522.088C486.2517,522.088,467,541.3199999999999,467,565.044Z" fill="#000000" fill-opacity="1"/></g></g></svg>