<svg xmlns="http://www.w3.org/2000/svg" xmlns:xlink="http://www.w3.org/1999/xlink" fill="none" version="1.1" width="1024" height="1024" viewBox="0 0 1024 1024"><defs><linearGradient x1="1.2456897497177124" y1="-0.2097281664609909" x2="-0.13377679884433746" y2="1.2053512334823608" id="master_svg0_12_8811"><stop offset="0%" stop-color="#00DDFF" stop-opacity="1"/><stop offset="100.00003576278687%" stop-color="#BFFF00" stop-opacity="1"/></linearGradient></defs><g style="mix-blend-mode:passthrough"><g><path d="M440.982,174.33507C487.474,164.57827,535.482,164.55479,581.9839999999999,174.26608C588.259,215.7207,613.0609999999999,252.0572,649.366,272.984C685.6410000000001,293.983,729.501,297.297,768.516,281.986C800.166,317.447,824.14,359.079,838.931,404.262C806.21,430.435,787.18,470.097,787.231,512.017C787.231,555.616,807.429,594.489,839,619.7719999999999C824.122,664.919,800.118,706.517,768.482,741.979C729.477,726.68,685.6320000000001,729.994,649.366,750.982C613.092,771.901,588.3050000000001,808.208,582.018,849.63C535.53,859.41,487.523,859.457,441.016,849.768C434.77,808.276,409.964,771.896,373.634,750.947C337.353,729.959,293.494,726.658,254.4838,741.979C222.8298,706.508,198.8552,664.865,184.0689278,619.668C216.7714,593.511,235.7986,553.879,235.7686,511.983C235.8029,470.051,216.7472,430.387,184,404.228C198.8781,359.081,222.8822,317.483,254.5183,282.021C293.523,297.32,337.368,294.006,373.634,273.01800000000003C409.908,252.0986,434.69399999999996,215.7923,440.982,174.36957L440.982,174.33507ZM511.5,615.495C568.606,615.495,614.899,569.1659999999999,614.899,512.017C614.899,454.868,568.606,408.53999999999996,511.5,408.53999999999996C454.394,408.53999999999996,408.101,454.868,408.101,512.017C408.101,569.1659999999999,454.394,615.495,511.5,615.495Z" fill="url(#master_svg0_12_8811)" fill-opacity="1"/></g><g><path d="M388,511.5Q388,486.3873,397.7135,463.4221Q407.089133,441.2555,424.1723,424.1723Q441.2555,407.089129,463.4221,397.7134Q486.3873,388,511.5,388Q536.613,388,559.578,397.7135Q581.745,407.08914,598.828,424.1723Q615.9110000000001,441.2555,625.287,463.4221Q635,486.3873,635,511.5Q635,536.613,625.287,559.578Q615.9110000000001,581.745,598.828,598.828Q581.745,615.9110000000001,559.578,625.287Q536.613,635,511.5,635Q486.3873,635,463.4221,625.287Q441.2555,615.9110000000001,424.1723,598.828Q407.089098,581.745,397.7134,559.578Q388,536.613,388,511.5L388,511.5ZM428,511.5Q428,528.501,434.5536,543.996Q440.8901,558.977,452.4566,570.543Q464.023,582.11,479.00419999999997,588.446Q494.4987,595,511.5,595Q528.501,595,543.996,588.446Q558.977,582.11,570.543,570.543Q582.11,558.977,588.446,543.996Q595,528.501,595,511.5Q595,494.4987,588.446,479.00419999999997Q582.11,464.023,570.543,452.4566Q558.977,440.8901,543.996,434.5536Q528.501,428,511.5,428Q494.4987,428,479.00419999999997,434.5536Q464.0231,440.8901,452.4566,452.4566Q440.8901,464.0231,434.5536,479.00419999999997Q428,494.4987,428,511.5L428,511.5Z" fill="#000000" fill-opacity="1"/></g></g></svg>